<svg t="1645587055005" class="icon" viewBox="0 0 1024 1024" version="1.1" xmlns="http://www.w3.org/2000/svg" p-id="1926" width="200" height="200"><path d="M939.19762963 201.31081482H783.85303703v-97.09037037c0-42.84112592-34.83117037-77.6722963-77.67229628-77.6722963H317.81925925c-42.84112592 0-77.6722963 34.83117037-77.67229628 77.6722963v97.09037037H84.80237037c-21.48124445 0-38.83614815 17.3549037-38.83614815 38.83614815v38.83614814c0 5.33997037 4.36906667 9.70903703 9.70903703 9.70903704h73.30322964l29.97665186 634.7282963c1.94180741 41.38477037 36.16616297 74.03140741 77.55093333 74.0314074h550.98785184c41.50613333 0 75.60912592-32.52527408 77.55093333-74.0314074l29.97665186-634.7282963H968.32474075c5.33997037 0 9.70903703-4.36906667 9.70903703-9.70903704v-38.83614814c0-21.48124445-17.3549037-38.83614815-38.83614815-38.83614815z m-242.72592593 0H327.5282963v-87.38133334h368.9434074v87.38133334z" p-id="1927"></path></svg>