<svg t="1645415451318" class="icon" viewBox="0 0 1024 1024" version="1.1" xmlns="http://www.w3.org/2000/svg" p-id="2015" width="200" height="200"><path d="M512 34.13333333q202.68373333 5.3248 337.6128 140.25386667T989.86666667 512q-5.3248 202.68373333-140.25386667 337.6128T512 989.86666667q-202.68373333-5.3248-337.6128-140.25386667T34.13333333 512q5.3248-202.68373333 140.25386667-337.6128T512 34.13333333z m0 420.28373334l-110.93333333-110.93333334q-12.8-12.8-29.32053334-12.8t-28.80853333 12.25386667-12.25386667 28.80853333 12.8 29.32053334l110.93333334 110.93333333-110.93333334 110.93333333q-12.8 12.8-12.8 29.32053334t12.25386667 28.80853333 28.80853333 12.25386667 29.32053334-12.8l110.93333333-110.93333334 110.93333333 110.93333334q17.06666667 16.00853333 39.45813334 10.1376t28.2624-28.2624-10.1376-39.45813334L569.58293333 512l110.93333334-110.93333333q12.8-12.8 12.8-29.32053334t-12.25386667-28.80853333-28.80853333-12.25386667-29.32053334 12.8z" p-id="2016"></path></svg>