<svg t="1644116770678" class="icon" viewBox="0 0 1024 1024" version="1.1" xmlns="http://www.w3.org/2000/svg" p-id="1565" width="200" height="200"><path d="M991.15377813 223.65866667A273.13777813 273.13777813 0 0 0 512 178.944 273.06666667 273.06666667 0 0 0 11.37777813 329.9555552c0 38.35733333 1.9484448 71.04711147 11.47022187 105.9128896 10.73066667 39.296 30.1155552 77.824 61.00622187 121.2515552 33.0595552 46.464 80.66133333 100.01777813 145.536 163.712 67.21422187 65.99111147 154.83022187 144.78222187 267.87555626 240.8604448a22.7555552 22.7555552 0 0 0 29.46844374 0c113.06666667-96.07822187 200.66133333-174.86933333 267.87555626-240.8604448 64.87466667-63.69422187 112.4764448-117.248 145.536-163.712 30.89066667-43.4275552 50.2755552-81.9555552 61.00622187-121.2515552 9.52177813-34.8444448 11.47022187-67.5555552 11.47022187-105.9128896a271.3955552 271.3955552 0 0 0-21.46844374-106.29688853z" p-id="1566"></path></svg>