<svg t="1644759705496" class="icon" viewBox="0 0 1024 1024" version="1.1" xmlns="http://www.w3.org/2000/svg" p-id="1834" width="200" height="200"><path d="M999.87911111 506.65244445L544.99555555 51.76888889c-18.20444445-18.20444445-47.78666667-18.20444445-65.9911111 0L24.12088889 506.65244445c-13.65333333 13.65333333-3.98222222 37.09155555 15.36 37.09155555H147.91111111v320.62577778c0 62.80533333 50.97244445 113.77777778 113.77777778 113.77777777h114.46044444c25.14488889 0 45.51111111-20.36622222 45.51111112-45.5111111V705.87733333c0-12.51555555 10.24-22.75555555 22.75555555-22.75555555h135.62311111c12.51555555 0 22.75555555 10.24 22.75555556 22.75555555v226.75911112c0 25.14488889 20.36622222 45.51111111 45.51111111 45.5111111h114.23288889c62.80533333 0 113.77777778-50.97244445 113.77777778-113.77777777V543.85777778h108.20266666c19.34222222 0 29.12711111-23.43822222 15.36-37.20533333z" p-id="1835"></path></svg>