<svg t="1645428497989" class="icon" viewBox="0 0 1024 1024" version="1.1" xmlns="http://www.w3.org/2000/svg" p-id="1896" width="200" height="200"><path d="M989.44 448.21333333c-2.98666667-18.56-6.61333333-36.90666667-11.30666667-55.04-5.97333333-23.04-13.65333333-45.86666667-23.04-67.84-18.98666667-45.22666667-45.01333333-87.46666667-76.58666666-125.01333333-34.13333333-40.32-75.30666667-75.09333333-120.96-101.76C712.53333333 72.10666667 663.46666667 53.33333333 612.26666667 42.88c-26.45333333-5.33333333-53.12-8.53333333-80.21333334-8.74666667-21.12-0.21333333-42.24 0.64-63.14666666 2.56-54.4 5.33333333-108.16 20.48-157.65333334 43.73333334-42.45333333 20.05333333-81.92 46.08-116.90666666 77.22666666-34.98666667 31.14666667-65.49333333 67.41333333-90.02666667 107.30666667-27.09333333 44.37333333-47.36 92.8-58.45333333 143.57333333-8.96 40.53333333-13.22666667 82.34666667-11.09333334 123.94666667 1.92 40.32 8.10666667 80.64 20.26666667 119.25333333 7.68 24.53333333 16.85333333 48.42666667 28.37333333 71.68 11.30666667 22.82666667 24.53333333 44.8 39.25333334 65.49333334 29.44 41.17333333 65.28 77.65333333 106.24 107.73333333 41.81333333 30.93333333 88.96 54.82666667 138.45333333 70.61333333 51.62666667 16.42666667 106.45333333 24.10666667 160.64 22.18666667 52.90666667-1.70666667 105.38666667-11.94666667 154.88-30.93333333 47.57333333-18.34666667 92.16-44.58666667 131.2-77.44 19.62666667-16.64 37.12-35.41333333 53.54666667-55.25333334 16.64-20.05333333 31.57333333-41.17333333 43.94666666-64 10.66666667-19.62666667 19.62666667-40.10666667 27.30666667-60.8 3.84-10.24 7.46666667-20.48 10.45333333-31.14666666 3.2-11.30666667 5.54666667-23.04 7.68-34.56 3.2-18.13333333 4.48-36.90666667 2.77333334-55.25333334-1.49333333 8.10666667-2.77333333 16-4.69333334 23.89333334-2.34666667 9.17333333-5.33333333 18.13333333-8.74666666 26.88-6.82666667 18.56-15.36 36.48-23.46666667 54.4-10.45333333 22.82666667-22.61333333 44.58666667-35.84 65.70666666-6.82666667 10.88-13.86666667 21.54666667-21.54666667 31.78666667-7.68 10.24-16.42666667 20.05333333-25.17333333 29.65333333-17.49333333 19.41333333-36.48 36.69333333-57.6 52.05333334-21.54666667 15.78666667-44.37333333 29.65333333-68.48 41.17333333-48.21333333 23.46666667-100.90666667 37.54666667-154.24 42.24-54.61333333 4.69333333-110.29333333-0.64-162.77333333-16.21333333-49.92-14.72-97.28-38.61333333-138.88-69.97333334-40.32-30.50666667-75.30666667-68.05333333-102.82666667-110.50666666C126.72 707.84 106.88 658.98666667 96 608c-2.77333333-13.22666667-4.90666667-26.88-6.4-40.32-1.28-11.52-2.34666667-23.25333333-2.77333333-34.98666667-0.64-24.10666667 0.85333333-49.06666667 4.48-72.96 7.89333333-52.48 24.96-103.04 51.41333333-149.12 23.46666667-41.17333333 53.97333333-78.29333333 89.81333333-109.65333333 35.84-31.57333333 76.8-56.96 121.17333334-74.88 25.6-10.45333333 52.48-18.13333333 79.78666666-23.25333333 13.86666667-2.56 27.73333333-4.69333333 41.6-5.76 6.82666667-0.64 13.44-0.64 20.26666667-1.28 2.77333333 0 5.54666667 0.21333333 8.32 0.21333333 46.29333333-0.85333333 92.8 5.12 136.96 18.98666667 47.57333333 14.93333333 92.37333333 39.04 131.2 70.4 40.74666667 32.85333333 74.66666667 73.38666667 100.26666667 119.04 21.76 38.82666667 37.33333333 80.64 46.72 124.16 2.13333333 10.02666667 3.84 20.05333333 5.54666666 30.08 1.49333333 9.17333333 6.61333333 17.70666667 14.50666667 22.82666666 16.64 11.09333333 39.89333333 3.62666667 48-14.29333333C989.65333333 461.01333333 990.50666667 454.4 989.44 448.21333333z" p-id="1897"></path></svg>