<svg t="1644841917262" class="icon" viewBox="0 0 1024 1024" version="1.1" xmlns="http://www.w3.org/2000/svg" p-id="1746" width="200" height="200"><path d="M512 85.333333c235.648 0 426.666667 191.018667 426.666667 426.666667s-191.018667 426.666667-426.666667 426.666667S85.333333 747.648 85.333333 512 276.352 85.333333 512 85.333333z m0 128a298.666667 298.666667 0 1 0 0 597.333334 298.666667 298.666667 0 0 0 0-597.333334z" fill="#000000" fill-opacity=".05" p-id="1747"></path><path d="M813.696 813.696c166.613333-166.613333 166.613333-436.778667 0-603.392-166.613333-166.613333-436.778667-166.613333-603.392 0A64 64 0 0 0 300.8 300.8a298.666667 298.666667 0 1 1 422.4 422.4 64 64 0 0 0 90.496 90.496z" fill="#ffffff" p-id="1748"></path></svg>