<svg t="1643288038979" class="icon" viewBox="0 0 1024 1024" version="1.1" xmlns="http://www.w3.org/2000/svg" p-id="1782" width="200" height="200"><path d="M512 34.13333333C248.10666667 34.13333333 34.13333333 248.10666667 34.13333333 512s213.97333333 477.86666667 477.86666667 477.86666667 477.86666667-213.97333333 477.86666667-477.86666667S775.89333333 34.13333333 512 34.13333333z m224.53333333 653.22666667c-12.26666667 1.49333333-47.89333333-56.21333333-47.89333333-56.21333333 0 33.38666667-17.28 77.01333333-54.50666667 108.58666666 18.02666667 5.54666667 58.56 20.48 48.96 36.69333334-7.78666667 13.12-133.97333333 8.42666667-170.45333333 4.26666666-36.48 4.05333333-162.66666667 8.85333333-170.45333333-4.26666666-9.70666667-16.21333333 30.82666667-31.14666667 48.85333333-36.69333334-37.33333333-31.46666667-54.50666667-75.09333333-54.50666667-108.58666666 0 0-35.62666667 57.70666667-47.89333333 56.21333333-5.76-0.74666667-13.22666667-31.57333333 10.02666667-106.34666667 10.98666667-35.2 23.46666667-64.53333333 42.88-112.85333333-3.30666667-124.69333333 48.32-229.33333333 171.09333333-229.33333333 121.49333333 0 174.18666667 102.50666667 171.09333333 229.33333333 19.30666667 48.21333333 31.89333333 77.65333333 42.88 112.85333333 23.14666667 74.77333333 15.57333333 105.70666667 9.92 106.34666667z" p-id="1783" fill="#707070"></path></svg>