<svg t="1640780533594" class="icon" viewBox="0 0 1024 1024" version="1.1" xmlns="http://www.w3.org/2000/svg" p-id="956" width="128" height="128"><path d="M797.86666667 75.09333333H244.90666667c-102.4 0-191.14666667 88.74666667-191.14666667 191.14666667V648.53333333c0 102.4 88.74666667 191.14666667 191.14666667 191.14666667h20.48s0 6.82666667 6.82666667 6.82666667l75.09333333 81.92c13.65333333 13.65333333 34.13333333 13.65333333 40.96 0l68.26666667-75.09333334 6.82666666-6.82666666h334.50666667c102.4 0 191.14666667-88.74666667 191.14666667-191.14666667V266.24c0-102.4-88.74666667-191.14666667-191.14666667-191.14666667zM258.56 532.48c-40.96 0-68.26666667-34.13333333-68.26666666-75.09333333 0-40.96 34.13333333-75.09333333 75.09333333-75.09333334 40.96 0 75.09333333 34.13333333 75.09333333 75.09333334-6.82666667 40.96-40.96 75.09333333-81.92 75.09333333z m259.41333334 0c-40.96 0-75.09333333-34.13333333-75.09333334-75.09333333 0-40.96 34.13333333-75.09333333 75.09333334-75.09333334 40.96 0 75.09333333 34.13333333 75.09333333 75.09333334 0 40.96-34.13333333 75.09333333-75.09333333 75.09333333z m266.24 0c-40.96 0-75.09333333-34.13333333-75.09333334-75.09333333 0-40.96 34.13333333-75.09333333 75.09333334-75.09333334 40.96 0 75.09333333 34.13333333 75.09333333 75.09333334-6.82666667 40.96-40.96 75.09333333-75.09333333 75.09333333z" fill="#707070" p-id="957"></path></svg>