<svg t="1645676122442" class="icon" viewBox="0 0 1024 1024" version="1.1" xmlns="http://www.w3.org/2000/svg" p-id="1987" width="200" height="200"><path d="M365.604792 262.10044l127.792525-127.793548 0.152473 503.227196c0.004093 11.014868 8.934486 19.943215 19.949354 19.943215 0.002047 0 0.004093 0 0.00614 0 11.016915-0.004093 19.947308-8.937556 19.943215-19.954471l-0.152473-503.100306 127.675868 127.676891c3.89675 3.89675 8.999978 5.843078 14.106276 5.843078 5.104251 0 10.212596-1.948375 14.106276-5.842055 7.79043-7.79043 7.79043-20.422122 0-28.212552L527.85306 72.555479c-3.638877-3.870144-8.791224-6.300496-14.521738-6.300496-0.002047 0-0.004093 0-0.00614 0-0.00614 0-0.01228 0.001023-0.01842 0.001023-0.00614 0-0.01228-0.001023-0.01842-0.001023-5.291516 0-10.364045 2.101871-14.106276 5.842055L337.39224 233.886865c-7.789407 7.79043-7.789407 20.422122 0 28.212552C345.18267 269.89087 357.814362 269.89087 365.604792 262.10044z" p-id="1988"></path><path d="M782.507924 315.087235 642.713041 315.087235c-11.016915 0-19.949354 8.931416-19.949354 19.949354s8.93244 19.949354 19.949354 19.949354l139.794883 0c38.498826 0 69.821205 31.322379 69.821205 69.821205l0 425.443645c0 38.498826-31.322379 69.821205-69.821205 69.821205L246.009973 920.071999c-38.498826 0-69.821205-31.322379-69.821205-69.821205L176.188768 424.806125c0-38.498826 31.322379-69.821205 69.821205-69.821205l143.936203 0c11.017938 0 19.949354-8.931416 19.949354-19.949354s-8.931416-19.949354-19.949354-19.949354L246.009973 315.086212c-60.499909 0-109.718891 49.220005-109.718891 109.718891l0 425.443645c0 60.499909 49.220005 109.718891 109.718891 109.718891l536.49795 0c60.499909 0 109.718891-49.220005 109.718891-109.718891L892.226814 424.806125C892.227838 364.306216 843.007833 315.087235 782.507924 315.087235z" p-id="1989"></path></svg>