<svg t="1643970598284" class="icon" viewBox="0 0 1024 1024" version="1.1" xmlns="http://www.w3.org/2000/svg" p-id="1500" width="200" height="200"><path d="M920.48340051 484.5059251L515.92772438 889.06160122 111.37204967 484.5059251c-7.85545018-7.85545018-15.71090034-11.78317456-27.49407491-11.78317457-11.78317456 0-19.63862474 3.92772438-27.49407627 11.78317457-15.71090034 15.71090034-15.71090034 39.27724947 0 54.9881498l459.54382589 459.54382591 459.54382592-459.54382591c11.78317456-15.71090034 11.78317456-35.34952507 0-51.06042541-15.71090034-15.71090034-39.27724947-19.63862474-54.98814979-3.92772439z" p-id="1501" ></path><path d="M515.92772438 566.98814979L975.4715503 107.44432389c11.78317456-15.71090034 11.78317456-35.34952507 0-51.0604254-15.71090034-15.71090034-39.27724947-19.63862474-54.98814979-3.92772441L515.92772438 457.01185021 111.37204967 52.45617408c-7.85545018-7.85545018-15.71090034-11.78317456-27.49407491-11.78317455-11.78317456 0-19.63862474 3.92772438-27.49407627 11.78317455-15.71090034 15.71090034-15.71090034 39.27724947 0 54.98814981l459.54382589 459.5438259z" p-id="1502" ></path></svg>