<svg t="1645415429900" class="icon" viewBox="0 0 1024 1024" version="1.1" xmlns="http://www.w3.org/2000/svg" p-id="1866" width="200" height="200"><path d="M512 34.4571072c-263.73902613 0-477.5428928 213.80386667-477.5428928 477.5428928s213.80386667 477.5428928 477.5428928 477.5428928 477.5428928-213.80386667 477.5428928-477.5428928S775.73902613 34.4571072 512 34.4571072zM512 824.477872c-37.676224 0-68.2204128-30.5441888-68.2204128-68.2204128 0-37.67840747 30.5441888-68.2204128 68.2204128-68.2204128s68.2204128 30.5420064 68.2204128 68.2204128C580.2204128 793.9336832 549.676224 824.477872 512 824.477872zM580.2204128 512c0 37.676224-30.5441888 68.2204128-68.2204128 68.2204128s-68.2204128-30.5441888-68.2204128-68.2204128l0-238.7714464c0-37.67840747 30.5441888-68.2204128 68.2204128-68.2204128s68.2204128 30.5420064 68.2204128 68.2204128L580.2204128 512z" p-id="1867"></path></svg>