<svg t="1641125314526" class="icon" viewBox="0 0 1024 1024" version="1.1" xmlns="http://www.w3.org/2000/svg" p-id="1197" width="128" height="128"><path d="M1016.99290706 694.36290085l-324.87732464-109.24867381s24.96775965-37.3733199 51.61841904-110.64677515c26.65454302-73.27863341 30.47213637-113.5167665 30.47213637-113.5167665l-210.30292037-1.73338674v-71.83004508l254.68616503-1.79552459v-50.78085277H563.85273047v-115.58932227h-124.73911877v115.59450043H201.48298841v50.78085278l237.63062329-1.68807791v77.04185615h-190.60781511v40.23295495h392.32794674s-4.31987422 32.65213883-19.35981986 73.2786334c-15.03606203 40.62261097-30.52521245 76.19911173-30.52521244 76.19911174s-184.21279605-64.47318409-281.28374834-64.47318407c-97.0709523 0-215.12895905 38.99537635-226.57526646 152.17297382-11.3919368 113.12063778 54.99328032 174.39501779 148.51978683 196.9497581 93.53815735 22.67124875 179.8916273-0.22395511 255.07582104-37.03285634 75.19584459-36.75323607 148.97675884-120.30532519 148.97675883-120.30532518l378.63432091 183.87751062c-15.44643067 89.71150222-93.29348962 155.2332623-184.32542087 155.14264463H194.02256435c-103.19282379 0.10097398-186.92097011-83.47571137-187.01676595-186.66465154V194.0277425c-0.09579583-103.20059102 83.48865675-186.93003188 186.67889147-187.0219441h636.29015671c103.19282379-0.0945013 186.92614827 83.48477314 187.01676595 186.67630238v500.68080007z m-473.49031823-63.29644878s-118.19393328 149.21107026-257.45647692 149.21107026c-139.32209241 0-168.57218465-70.89797751-168.57218464-121.88725096 0-50.92713561 28.96270475-106.33855179 147.50357428-114.35044915 118.47484809-8.00024652 278.58463605 87.02662985 278.58463605 87.02662985h-0.0608433z" fill="#02A9F1" p-id="1198"></path></svg>