<?xml version="1.0" standalone="no"?><!DOCTYPE svg PUBLIC "-//W3C//DTD SVG 1.1//EN" "http://www.w3.org/Graphics/SVG/1.1/DTD/svg11.dtd"><svg t="1519962123766" class="icon" style="" viewBox="0 0 1024 1024" version="1.1" xmlns="http://www.w3.org/2000/svg" p-id="2541" xmlns:xlink="http://www.w3.org/1999/xlink" width="200" height="200"><defs><style type="text/css"></style></defs><path d="M425.396383 555.773581 431.371301 561.74849 852.57519 140.54461 814.060439 102.029857 392.856547 523.233737 397.485239 527.862435 355.764622 678.571814 495.194066 647.358507 496.733003 648.897427 499.159706 646.470743 501.690154 645.904253 500.789814 644.840622 925.298594 220.331836 886.783842 181.817091 465.477263 603.123668 425.396383 555.773581 425.396383 555.773581ZM44.988027 196.085106 12.307176 196.085106 12.307176 1023.999999 44.988027 1023.999999 840.222068 1023.999999 840.222068 991.319148 840.222068 991.319148 840.222068 370.382978 796.6476 392.170212 796.6476 980.425531 55.881644 980.425531 55.881644 980.425531 55.881644 239.659574 644.136962 239.659574 665.924196 196.085106 44.988027 196.085106 44.988027 196.085106ZM884.769233 27.03553C901.827657 9.977109 929.364418 9.856704 946.619979 27.112265L1000.236757 80.729042C1017.337559 97.829842 1017.429165 125.464114 1000.313491 142.579788L954.170992 188.722287 838.626735 73.178029 884.769233 27.03553Z" p-id="2542"></path></svg>