<svg t="1643341967348" class="icon" viewBox="0 0 1024 1024" version="1.1" xmlns="http://www.w3.org/2000/svg" p-id="1239" width="200" height="200"><path d="M928 427.2c-14.4 0-27.2-9.6-30.4-24C849.6 232 691.2 112 512 112S174.4 232 126.4 404.8c-4.8 17.6-22.4 27.2-40 22.4-17.6-4.8-27.2-22.4-22.4-40C121.6 187.2 304 48 512 48s390.4 139.2 446.4 339.2c4.8 17.6-4.8 35.2-22.4 40H928zM512 976C304 976 121.6 836.8 65.6 636.8c-4.8-17.6 4.8-35.2 22.4-40 17.6-4.8 35.2 4.8 40 22.4C174.4 792 332.8 912 512 912s337.6-120 385.6-292.8c4.8-17.6 22.4-27.2 40-22.4 17.6 4.8 27.2 22.4 22.4 40C902.4 836.8 720 976 512 976z" fill="#ffffff" p-id="1240"></path><path d="M123.2 491.2l67.2-67.2c12.8-12.8 12.8-32 0-44.8-12.8-12.8-32-12.8-44.8 0l-44.8 44.8-44.8-44.8c-12.8-12.8-32-12.8-44.8 0-12.8 12.8-12.8 32 0 44.8l67.2 67.2c11.2 11.2 32 11.2 44.8 0zM900.8 532.8l-67.2 67.2c-12.8 12.8-12.8 32 0 44.8 12.8 12.8 32 12.8 44.8 0l44.8-44.8 44.8 44.8c12.8 12.8 32 12.8 44.8 0s12.8-32 0-44.8l-67.2-67.2c-11.2-11.2-32-11.2-44.8 0z" fill="#ffffff" p-id="1241"></path><path d="M512 400m-112 0a112 112 0 1 0 224 0 112 112 0 1 0-224 0Z" fill="#ffffff" p-id="1242"></path><path d="M544 544h-64c-88 0-160 72-160 160 0 17.6 14.4 32 32 32h320c17.6 0 32-14.4 32-32 0-88-72-160-160-160z" fill="#ffffff" p-id="1243"></path></svg>