<svg t="1645408045411" class="icon" viewBox="0 0 1024 1024" version="1.1" xmlns="http://www.w3.org/2000/svg" p-id="1776" width="200" height="200"><path d="M317.81925888 657.63555555a48.54518557 48.54518557 0 0 1-48.54518443 48.54518557H220.72888889a194.18074112 194.18074112 0 0 1-45.82665444-382.92442112 339.8648411 339.8648411 0 0 1 648.70930888-92.62421333A242.72592555 242.72592555 0 0 1 754.72592555 706.18074112a48.54518557 48.54518557 0 0 1 0.04854556-97.09037113 145.63555555 145.63555555 0 0 0 41.40904334-285.34859776l-43.39939555-12.81592889-18.10735445-41.45758891a242.77447111 242.77447111 0 0 0-463.41233778 66.02145224l-8.39831666 66.40981333-65.05054891 15.72864A97.18746112 97.18746112 0 0 0 220.72888889 609.09036999h48.54518556a48.54518557 48.54518557 0 0 1 48.54518443 48.54518556z m366.03069667 99.37199446a48.54518557 48.54518557 0 0 1 0 68.64289109l-137.57705443 137.47996445c-18.98116779 18.93262222-49.71027001 18.93262222-68.69143779 0l-137.57705444-137.47996445a48.54518557 48.54518557 0 0 1 68.64289223-68.64289109L463.45481443 811.81506333V414.90963001a48.54518557 48.54518557 0 0 1 97.09037114 0v396.75979776l54.66187776-54.66187776a48.54518557 48.54518557 0 0 1 68.64289222 0z"  p-id="1777"></path></svg>