<svg t="1643859889618" class="icon" viewBox="0 0 1024 1024" version="1.1" xmlns="http://www.w3.org/2000/svg" p-id="4266" width="200" height="200"><path d="M922.666667 583.125333H101.333333c-32.426667 0-58.666667-32-58.666666-71.253333 0-39.253333 26.325333-71.125333 58.666666-71.125333h821.333334c32.426667 0.085333 58.666667 31.914667 58.666666 71.168 0 39.253333-26.325333 71.082667-58.666666 71.082666v0.128z m0-355.541333H101.333333C68.906667 227.584 42.666667 195.797333 42.666667 156.544 42.666667 117.162667 68.992 85.333333 101.333333 85.333333h821.333334C955.093333 85.333333 981.333333 117.162667 981.333333 156.501333c0 39.296-26.325333 71.082667-58.666666 71.082667zM101.333333 796.501333h821.333334c32.426667 0 58.666667 31.829333 58.666666 70.997334 0 39.338667-26.325333 71.168-58.666666 71.168H101.333333C68.906667 938.666667 42.666667 906.837333 42.666667 867.584c0-39.253333 26.325333-71.082667 58.666666-71.082667z" p-id="4267" fill="#707070"></path></svg>