<svg t="1643940334854" class="icon" viewBox="0 0 1024 1024" version="1.1" xmlns="http://www.w3.org/2000/svg" p-id="3735" width="200" height="200"><path d="M512 1024C229.232 1024 0 794.768 0 512 0 229.232 229.232 0 512 0c282.768 0 512 229.232 512 512 0 282.768-229.232 512-512 512z m0-552.224l-150.56-150.56a28.448 28.448 0 0 0-40.224 40.224l150.56 150.56-150.56 150.56a28.448 28.448 0 0 0 40.224 40.224l150.56-150.56 150.56 150.56a28.448 28.448 0 0 0 40.224-40.224L552.224 512l150.56-150.56a28.448 28.448 0 0 0-40.224-40.224L512 471.776z" p-id="3736" fill="#707070"></path></svg>