<svg t="1647159154057" class="icon" viewBox="0 0 1024 1024" version="1.1" xmlns="http://www.w3.org/2000/svg" p-id="2369" width="200" height="200"><path d="M512.79346688 1.64290674c-281.64530176 0-509.96123307 228.31593131-509.96123307 509.96123307 0 281.64530176 228.31593131 509.96123307 509.96123307 509.96123306 281.64530176 0 509.96123307-228.31593131 509.96123307-509.96123306C1022.75469995 229.95883805 794.43876864 1.64290674 512.79346688 1.64290674zM819.94032355 369.00943189L467.06927161 729.52524459c-1.20271645 1.80465778-2.54165561 3.52781426-4.11927552 5.12522695-13.83066055 14.04721949-36.25149099 14.04721949-50.09146652 0L237.58089557 556.6751653c-13.82018275-14.04838457-13.82018275-36.81268053 0-50.84010724 13.82949661-14.04838457 36.2503259-14.04838457 50.0809876 0L437.37509091 657.83261298l332.47376612-339.68308111c13.84113949-14.04721949 36.25149099-14.04721949 50.09146652 0C833.76050517 332.19675022 833.76050517 354.95988338 819.94032355 369.00943189z" fill="#5CA745" p-id="2370"></path></svg>