<svg t="1647159499368" class="icon" viewBox="0 0 1024 1024" version="1.1" xmlns="http://www.w3.org/2000/svg" p-id="2369" width="200" height="200"><path d="M512 2.27555555q216.19598222 5.67978667 360.12032 149.60412445T1021.72444445 512q-5.67978667 216.19598222-149.60412445 360.12032T512 1021.72444445q-216.19598222-5.67978667-360.12032-149.60412445T2.27555555 512q5.67978667-216.19598222 149.60412445-360.12032T512 2.27555555z m0 448.3026489l-118.32888889-118.3288889q-13.65333333-13.65333333-31.27523556-13.65333333t-30.72910222 13.07079111-13.07079111 30.72910222 13.65333333 31.27523556l118.3288889 118.32888889-118.3288889 118.32888889q-13.65333333 13.65333333-13.65333333 31.27523556t13.07079111 30.72910222 30.72910222 13.07079111 31.27523556-13.65333333l118.32888889-118.3288889 118.32888889 118.3288889q18.20444445 17.07576889 42.08867556 10.81344t30.14656-30.14656-10.81344-42.08867556L573.42179555 512l118.3288889-118.32888889q13.65333333-13.65333333 13.65333333-31.27523556t-13.07079111-30.72910222-30.72910222-13.07079111-31.27523556 13.65333333z" fill="#ad1a07" p-id="2370"></path></svg>