<svg t="1646650673948" class="icon" viewBox="0 0 1024 1024" version="1.1" xmlns="http://www.w3.org/2000/svg" p-id="2116" width="200" height="200"><path d="M900.3614811 803.34392889A484.82076445 484.82076445 0 0 1 512 997.45185223C243.88494222 997.45185223 26.54814777 780.11505778 26.54814777 512S243.88494222 26.54814777 512 26.54814777s485.45185223 217.33679445 485.45185223 485.45185223a24.27259221 24.27259221 0 0 1-48.54518556 0c0-241.29384334-195.61282333-436.90666667-436.90666667-436.90666667S75.09333333 270.70615666 75.09333333 512s195.61282333 436.90666667 436.90666667 436.90666667a436.42121443 436.42121443 0 0 0 363.36071111-194.18074112h-96.43500999A24.17550222 24.17550222 0 0 1 754.72592555 730.45333333c0-13.39847111 10.99548445-24.27259221 24.19977557-24.27259221h145.78119111c6.67496334 0 12.7188389 2.66998557 17.08790443 7.03905109l0.02427335 0.12136334c4.36906667 4.41761223 7.08759666 10.43721443 7.08759666 17.03936v145.78119112c0 13.34992555-10.77703111 24.19977443-24.27259222 24.19977443-13.39847111 0-24.27259221-10.99548445-24.27259335-24.19977443v-72.81777778z"  p-id="2117"></path></svg>