<svg t="1643937649452" class="icon" viewBox="0 0 1024 1024" version="1.1" xmlns="http://www.w3.org/2000/svg" p-id="1407" width="200" height="200"><path d="M387.72432592 97.74775309C545.14017975 97.74775309 677.70089876 230.3084721 677.70089876 387.72432592S545.14017975 677.70089876 387.72432592 677.70089876 97.74775309 545.14017975 97.74775309 387.72432592 230.3084721 97.74775309 387.72432592 97.74775309M387.72432592 14.8973037C180.59820247 14.8973037 14.8973037 180.59820247 14.8973037 387.72432592S180.59820247 760.55134815 387.72432592 760.55134815 760.55134815 594.85044939 760.55134815 387.72432592 594.85044939 14.8973037 387.72432592 14.8973037L387.72432592 14.8973037z" p-id="1408" ></path><path d="M926.25224691 967.67747161c-8.28504494 0-24.85513482 0-33.14017974-8.28504494l-248.55134815-248.55134815c-16.57008987-16.57008987-16.57008987-41.42522469 0-57.99531457s41.42522469-16.57008987 57.99531456 0l248.55134815 248.55134815c16.57008987 16.57008987 16.57008987 41.42522469 0 57.99531457C951.10738173 967.67747161 934.53729185 967.67747161 926.25224691 967.67747161z" p-id="1409" ></path></svg>