<svg t="1643360660721" class="icon" viewBox="0 0 1024 1024" version="1.1" xmlns="http://www.w3.org/2000/svg" p-id="1874" width="200" height="200"><path d="M512 3.86844445c-372.05333333 0-509.72444445 324.49422222-509.72444445 506.42488888 0 181.93066667 132.32355555 509.72444445 498.91555556 509.72444445 0 0 91.136 1.59288889 91.136-80.32711111s-40.96-55.75111111-40.96-114.688c0-59.05066667 40.96-85.21955555 60.64355556-85.21955556 19.68355555 0 149.16266667 9.78488889 221.29777778-18.09066666C905.32977778 693.93066667 1021.72444445 605.41155555 1021.72444445 454.656c0-132.77866667-137.67111111-450.78755555-509.72444445-450.78755555zM201.27288889 512c-48.92444445 0-88.51911111-39.59466667-88.51911111-88.51911111s39.59466667-88.51911111 88.51911111-88.51911111 88.51911111 39.59466667 88.51911111 88.51911111c-0.11377778 48.92444445-39.70844445 88.51911111-88.51911111 88.51911111z m166.912-219.02222222c-48.92444445 0-88.51911111-39.59466667-88.51911111-88.51911111s39.59466667-88.51911111 88.51911111-88.51911112c48.81066667 0 88.51911111 39.59466667 88.51911111 88.51911112s-39.59466667 88.51911111-88.51911111 88.51911111z m283.87555556 0c-48.81066667 0-88.51911111-39.59466667-88.51911112-88.51911111s39.59466667-88.51911111 88.51911112-88.51911112c48.81066667 0 88.51911111 39.59466667 88.5191111 88.51911112s-39.59466667 88.51911111-88.5191111 88.51911111zM820.56533333 512c-48.81066667 0-88.51911111-39.59466667-88.51911111-88.51911111s39.59466667-88.51911111 88.51911111-88.51911111 88.51911111 39.59466667 88.51911112 88.51911111c0.11377778 48.92444445-39.59466667 88.51911111-88.51911112 88.51911111z" p-id="1875"></path></svg>