<svg t="1643358073488" class="icon" viewBox="0 0 1024 1024" version="1.1" xmlns="http://www.w3.org/2000/svg" p-id="5371" width="200" height="200"><path d="M521.152 511.936m-416 0a416 416 0 1 0 832 0 416 416 0 1 0-832 0Z" fill="#AEECFF" p-id="5372"></path><path d="M837.568 634.56a13.568 13.568 0 0 0-19.328 0l-195.968 195.904a13.696 13.696 0 0 0 0 19.328l62.784 62.72c2.56 2.624 6.016 3.968 9.472 3.968h0.064l0.064 0.064s65.984-22.4 92.352-19.264c52.032 6.08 120.448 59.968 120.448 59.968l0.192-0.256a26.816 26.816 0 0 0 35.52-1.856 26.816 26.816 0 0 0 1.856-35.52l0.384-0.32s-53.376-68.992-59.136-120.64c-3.264-28.48 17.856-91.904 17.856-91.904l-0.064 0.064a13.568 13.568 0 0 0-3.904-9.472l-62.592-62.784z m96.32 311.552a12.8 12.8 0 1 1-18.112-18.176 12.8 12.8 0 0 1 18.112 18.176z" fill="#01C4C6" p-id="5373"></path><path d="M837.568 634.56a13.568 13.568 0 0 0-19.328 0l-97.92 97.92 195.456 195.456a12.8 12.8 0 1 1 18.112 18.176l9.216 9.152 0.192-0.192a26.816 26.816 0 0 0 1.856-35.52l0.384-0.32s-53.376-68.992-59.136-120.64c-3.264-28.48 17.856-91.904 17.856-91.904l-0.064 0.064a13.568 13.568 0 0 0-3.904-9.472l-62.72-62.72z" fill="#00B1B3" p-id="5374"></path><path d="M882.688 679.68l-45.12-45.12a13.568 13.568 0 0 0-19.328 0l-195.968 195.904a13.696 13.696 0 0 0 0 19.328l45.184 45.184 215.232-215.296z" fill="#D8D8D8" p-id="5375"></path><path d="M849.856 636.8a6.848 6.848 0 0 1 0 9.6L634.24 862.08a6.848 6.848 0 0 1-9.664-9.664l215.616-215.68a6.848 6.848 0 0 1 9.664 0.064zM870.656 657.664a6.72 6.72 0 0 1 0 9.6l-215.616 215.616a6.848 6.848 0 0 1-9.6 0 6.848 6.848 0 0 1-0.064-9.664l215.616-215.616a6.72 6.72 0 0 1 9.664 0.064z" fill="#F7F7F7" p-id="5376"></path><path d="M542.784 745.088l191.104-191.168 82.432 82.432L625.28 827.52z" fill="#F7DC8F" p-id="5377"></path><path d="M571.712 716.16l28.928-28.928 82.56 82.432-28.928 28.928zM620.928 666.88l17.28-17.344 82.56 82.304-17.28 17.344z" fill="#FFECBD" p-id="5378"></path><path d="M658.624 629.12l37.952-37.952 82.56 82.368-38.016 38.016z" fill="#EFCE71" p-id="5379"></path><path d="M679.872 608l37.888-37.888 82.496 82.432-37.952 37.952z" fill="#EDCE8A" p-id="5380"></path><path d="M521.088 96a416 416 0 0 0-416 416c0 31.168 3.712 61.44 10.176 90.688 2.88 0.256 5.312 1.536 8.256 1.536 35.968 0 65.152-29.184 65.152-65.152 0-0.384-0.192-0.704-0.192-1.152h0.32V417.92h0.256a23.68 23.68 0 0 1 47.296 1.472h0.384l0.512 118.656h0.576a51.584 51.584 0 0 0 103.104 0h0.64L340.736 291.2v-1.216h0.192a37.056 37.056 0 0 1 74.112 1.152c0 0.512-0.256 0.96-0.32 1.536l1.152 244.16c-0.064 1.216-0.704 2.24-0.704 3.392a61.504 61.504 0 0 0 122.944 0c0-0.832-0.448-1.472-0.448-2.24h0.192V268.032h0.32c0-0.512-0.32-0.96-0.32-1.472a31.488 31.488 0 1 1 62.976 0c0 0.512-0.256 0.96-0.32 1.472h0.192l0.768 266.496c-0.064 0.512-0.256 0.96-0.256 1.472 0 0.576 0.32 1.024 0.32 1.536v0.448H601.6a28.8 28.8 0 0 0 28.544 27.008 28.8 28.8 0 0 0 28.608-27.008v-0.128c0.064-0.64 0.384-1.216 0.384-1.856 0-0.64-0.32-1.216-0.384-1.792l0.512-244.992-0.064-0.32a43.52 43.52 0 0 1 87.04 0l-0.064 0.448h0.64v127.552c-0.064 0.96-0.576 1.792-0.576 2.752 0 1.024 0.512 1.792 0.576 2.752v5.568h1.152a42.88 42.88 0 0 0 41.728 35.136 42.816 42.816 0 0 0 41.792-35.136h1.344v-6.464c0-0.64 0.384-1.216 0.384-1.856s-0.384-1.216-0.384-1.856v-42.048c-0.064-0.576-0.64-0.896-0.64-1.472s0.576-0.96 0.64-1.472V372.48h0.128a20.928 20.928 0 0 1 20.48-19.52c11.2 0 20.032 8.96 20.736 20.032h0.64l0.896 164.992h0.832c0.704 23.488 19.712 42.24 43.2 42.24 4.16 0 7.936-1.28 11.776-2.368 3.456-21.504 5.76-43.456 5.76-65.92A416.192 416.192 0 0 0 521.088 96z" fill="#0091DC" p-id="5381"></path></svg>