<svg t="1643360630756" class="icon" viewBox="0 0 1024 1024" version="1.1" xmlns="http://www.w3.org/2000/svg" p-id="1695" width="200" height="200"><path d="M843.98080001 137.386667c11.557547 0 21.572267 4.266667 30.0032 12.65664 8.471893 8.39680001 12.683947 18.49344 12.68394699 30.010026 0 11.810133-4.212053 21.899947-12.68394699 30.296747l-60.30677301 60.299947c-8.192 8.246613-18.18624 12.36992-29.996374 12.36992-12.253867 0-22.370987-4.123307-30.501546-12.0832-8.123733-8.11008-12.151467-18.35008-12.151467-30.583467 0-11.803307 4.082347-21.756587 12.30848-30.0032l60.299947-60.306773c8.47872001-8.389973 18.568533-12.65664001 30.35136-12.65664z m52.00554699 331.946666h85.333333c11.776 0 21.845333 4.123307 30.153387 12.51328C1019.849387 490.243413 1024 500.196693 1024 512c0 11.810133-4.150613 21.899947-12.526933 30.153387-8.308053 8.389973-18.37738701 12.51328-30.153387 12.51328h-85.333333c-11.776 0-21.818027-4.123307-30.194347-12.51328-8.308053-8.25344-12.506453-18.35008-12.506453-30.153387 0-11.810133 4.1984-21.763413 12.506453-30.153387 8.37632-8.389973 18.418347-12.51328 30.194347-12.51328zM512 0c11.776 0 21.80437299 4.266667 30.17386701 12.51328 8.31488001 8.39680001 12.506453 18.49344 12.50645299 30.153387v85.33333299c0 11.810133-4.191573 21.899947-12.499627 30.153387-8.37632 8.389973-18.404693 12.65664001-30.180693 12.65664-11.789653 0-21.818027-4.266667-30.19434699-12.65664-8.308053-8.25344-12.499627-18.35008-12.49962601-30.153387V42.666667c0-11.659947 4.191573-21.763413 12.49962601-30.153387C490.1888 4.266667 500.217173 0 512.006827 0zM180.34005298 137.386667c11.55072 0 21.558613 4.266667 30.02368002 12.65664l60.299947 60.306773c8.47872001 8.389973 12.663467 18.486613 12.663467 30.0032 0 11.810133-4.15744001 21.906773-12.506454 30.153387-8.328533 8.39680001-18.37056 12.51328-30.173866 12.51328-12.008107 0-22.132053-4.123307-30.3104-12.22656l-60.32042701-60.30677402c-8.246613-8.246613-12.32895999-18.343253-12.32895999-30.43327998 0-11.810133 4.150613-21.763413 12.52693299-30.153386 8.308053-8.246613 18.37738701-12.51328 30.18069401-12.51328h-0.05461402z m603.34080002 603.306666c11.55072 0 21.551787 4.123307 29.996374 12.65664l60.30677299 60.306774c8.471893 8.533333 12.683947 18.486613 12.68394701 30.28992 0 11.523413-4.212053 21.620053-12.68394701 30.010026-8.43776 8.533333-18.445653 12.65664001-29.99637299 12.65664-11.776 0-21.87264-4.123307-30.35136-12.65664l-60.299947-60.299946c-8.226133-8.11008-12.30848-18.20672-12.30848-30.010027 0-11.810133 4.15744001-21.906773 12.506453-30.296747 8.328533-8.389973 18.404693-12.65664001 30.173867-12.65664h-0.027307zM512.006827 341.333333c-47.117653 0-87.299413 16.643413-120.674987 50.059947-33.327787 33.28-50.005333 73.530027-50.005333 120.60672 0 47.076693 16.677547 87.32672 50.005333 120.75008C424.71424001 666.016427 464.889173 682.666667 512 682.666667c47.117653 0 87.313067-16.643413 120.695467-49.923414C665.98912 599.333547 682.666667 559.08352 682.666667 512c0-47.076693-16.677547-87.32672-49.9712-120.60672C599.313067 357.976747 559.117653 341.333333 512 341.333333zM42.68032 469.333333h85.333333c11.789653 0 21.818027 4.123307 30.194347 12.51328 8.308053 8.39680001 12.506453 18.35008 12.506453 30.153387 0 11.810133-4.1984 21.899947-12.506453 30.153387-8.37632 8.389973-18.404693 12.51328-30.194347 12.51328h-85.333333c-11.776 0-21.83168001-4.123307-30.153387-12.51328C4.150613 533.899947 0 523.803307 0 512c0-11.810133 4.150613-21.763413 12.526933-30.153387 8.328533-8.389973 18.37738701-12.51328 30.153387-12.51328zM512.006827 853.333333c11.776 0 21.80437299 4.123307 30.173866 12.51327998 8.31488001 8.39680001 12.506453 18.35008 12.506454 30.15338703v85.33333299c0 11.810133-4.191573 21.899947-12.49962701 30.153387C533.8112 1019.876693 523.782827 1024 512 1024c-11.789653 0-21.818027-4.123307-30.19434699-12.51328-8.308053-8.25344-12.499627-18.35008-12.49962601-30.153387v-85.33333299c0-11.810133 4.191573-21.763413 12.49962601-30.153387 8.37632-8.389973 18.404693-12.51328 30.19434699-12.51328001z m-271.305387-112.64c11.741867 0 21.818027 4.123307 30.16703999 12.65664 8.328533 8.39680001 12.526933 18.49344 12.52693301 30.296747 0 11.659947-4.253013 21.613227-12.6976 30.0032l-60.306773 60.306773c-8.430933 8.533333-18.432 12.65664001-29.996373 12.65664-11.803307 0-21.87264-4.123307-30.173867-12.37674601-8.383147-8.389973-12.53376-18.486613-12.53376-30.28991999 0-11.946667 4.082347-22.050133 12.32896001-30.296747l60.32042699-60.299947c8.430933-8.533333 18.561707-12.65664001 30.3104-12.65664h0.054613zM512 256c46.434987 0 89.27232 11.523413 128.484693 34.269867 39.253333 23.046827 70.314667 54.04672 93.156694 93.300053 22.882987 39.11680002 34.338133 81.92000001 34.338133 128.43008 0 46.51008-11.42784001 89.31328-34.338133 128.566613-22.89664001 39.11680002-53.971627 70.116693-93.156694 93.156694-39.164587 22.89664001-81.988267 34.276693-128.484693 34.276693-46.48960001 0-89.299627-11.380053-128.49834702-34.269867-39.185067-23.046827-70.232747-54.053547-93.15669298-93.16352-22.89664001-39.253333-34.338133-82.056533-34.33813301-128.566613 0-46.51008 11.482453-89.31328 34.33813301-128.43008 22.85568-39.253333 53.90336-70.253227 93.15669298-93.293227C422.734507 267.516587 465.565013 256 512 256z" p-id="1696" ></path></svg>