<svg t="1641111537985" class="icon" viewBox="0 0 1024 1024" version="1.1" xmlns="http://www.w3.org/2000/svg" p-id="1219" width="128" height="128"><path d="M510.73188082 900.0444523c-28.53268017 0-55.16318159-12.04713214-74.81902876-32.97109728L59.28147354 458.73899717c-34.87327604-38.04357396-36.14139521-96.37705349-1.90217877-135.68874662l142.66340088-164.22142681c19.02178638-22.19208431 46.92040697-34.87327604 76.72120752-34.87327604H746.60203725c29.16673977 0 57.06536035 12.68119173 76.08714793 34.87327604l143.29746046 164.22142681c34.23921645 39.31169314 33.60515686 97.64517266-1.90217876 135.68874662L584.91685001 867.07335502c-19.02178638 20.92396513-46.2863486 32.97109728-74.18496919 32.97109728z" fill="#F2CB51" p-id="1220"></path><path d="M505.65940414 670.51489053c-6.34059586 0-13.31525132-2.53623835-18.3877268-7.60871504l-247.28322897-253.62382484c-9.51089379-10.14495338-9.51089379-25.99644182 0.63405959-36.1413952 10.14495338-9.51089379 25.99644182-9.51089379 36.14139521 0.63405958l229.52956055 235.23609805 241.57669271-235.87015763c10.14495338-9.51089379 25.99644182-9.51089379 36.1413952 0.63405958 9.51089379 10.14495338 9.51089379 25.99644182-0.63405959 36.1413952l-259.96441949 253.62382484c-5.07247669 4.4384171-11.41307255 6.97465546-17.75366841 6.97465546z" fill="#FFF7E1" p-id="1221"></path></svg>