<svg t="1641125340799" class="icon" viewBox="0 0 1024 1024" version="1.1" xmlns="http://www.w3.org/2000/svg" p-id="1343" width="128" height="128"><path d="M847.22184107 17.87936533H175.32180267a158.9248 158.9248 0 0 0-157.39042454 159.15885654v670.80777173A158.35266027 158.35266027 0 0 0 176.1019936 1006.12063467h671.7960128a158.8727872 158.8727872 0 0 0 158.17061547-158.37866667V177.03822187A160.12109227 160.12109227 0 0 0 847.22184107 17.87936533zM511.27182187 771.30930773a386.37633067 386.37633067 0 0 1-103.66130774-13.99141546 124.96050773 124.96050773 0 0 0-28.08685653 8.58209493l-63.8715936 39.78971413c-18.72457173 12.43103467-24.91408213 7.80190507-17.94438187-14.01742186l13.99141654-49.88017814a96.22349227 96.22349227 0 0 0-2.31456534-29.64723733 268.7756192 268.7756192 0 0 1-126.2348192-220.0137152c0-153.64551147 147.2739552-279.20416533 328.12210774-279.20416427a348.64111787 348.64111787 0 0 1 267.3452704 117.7307424l-305.57460374 145.06341547a47.773664 47.773664 0 0 1-63.09140266-3.87494507l-49.152-43.69066666c-22.57351147-7.07372693-30.37541547 0.78019093-23.32769494 21.0131296l52.97493334 128.73142826c11.7028576 19.5047616 29.6472384 25.77229227 59.26846933 3.87494614l354.57056533-216.1127616a246.33213973 246.33213973 0 0 1 35.03055254 125.58466026c0.0780192 154.50372053-147.2739552 280.0623744-328.0440896 280.0623744z m0 0" fill="#2AAC38" p-id="1344"></path></svg>