<svg t="1643287948439" class="icon" viewBox="0 0 1024 1024" version="1.1" xmlns="http://www.w3.org/2000/svg" p-id="1477" width="200" height="200"><path d="M579.84746667 514.37226667c-10.1856 0-20.42986667 10.2432-20.42986667 20.41066666 0 10.33706667 10.24426667 20.44693333 20.42986667 20.44693334 15.44426667 0 25.552-10.10986667 25.552-20.44693334C605.40053333 524.6144 595.29173333 514.37226667 579.84746667 514.37226667z" p-id="1478" fill="#707070"></path><path d="M692.18773333 514.37226667c-10.11093333 0-20.29546667 10.2432-20.29546666 20.41066666 0 10.33706667 10.18453333 20.44693333 20.29546666 20.44693334 15.3088 0 25.552-10.10986667 25.552-20.44693334C717.73973333 524.6144 707.49546667 514.37226667 692.18773333 514.37226667z" p-id="1479" fill="#707070"></path><path d="M370.47893333 366.24853333c-15.28853333 0-30.74986667 10.0896-30.74986666 25.47413334 0 15.30773333 15.46133333 25.5488 30.74986666 25.5488 15.30986667 0 25.47733333-10.24213333 25.47733334-25.5488C395.95626667 376.3392 385.7888 366.24853333 370.47893333 366.24853333z" p-id="1480" fill="#707070"></path><path d="M513.43573333 417.27146667c15.36533333 0 25.55306667-10.24213333 25.55306667-25.5488 0-15.38346667-10.18773333-25.47413333-25.55306667-25.47413334-15.3088 0-30.69333333 10.0896-30.69333333 25.47413334C482.7424 407.0304 498.12693333 417.27146667 513.43573333 417.27146667z" p-id="1481" fill="#707070"></path><path d="M521.15626667 37.0048c-263.53173333 0-477.40373333 213.75146667-477.40373334 477.36426667 0 263.61386667 213.872 477.36533333 477.40373334 477.36533333 263.55946667 0 477.32906667-213.75253333 477.32906666-477.36426667C998.48533333 250.75626667 784.71466667 37.0048 521.15626667 37.0048zM436.83626667 626.83413333c-25.49546667 0-45.98293333-5.19893333-71.53493334-10.2432l-71.40053333 35.81226667 20.41173333-61.4592c-51.10506667-35.7152-81.72266667-81.78986667-81.72266666-137.85813333 0-97.17653333 91.96373333-173.69173333 204.24746666-173.69173334 100.4064 0 188.3808 61.11146667 206.06826667 143.40373334-6.48533333-0.7296-13.04533333-1.1904-19.66506667-1.1904-97.02826667 0-173.62986667 72.39253333-173.62986666 161.62666666 0 14.8256 2.30186667 29.13706667 6.29333333 42.79466667C449.5936 626.528 443.24266667 626.83413333 436.83626667 626.83413333zM738.09386667 698.36373333l15.3856 51.06133334-56.01706667-30.69013334c-20.42986667 5.12106667-40.95573333 10.24426667-61.29173333 10.24426667-97.1808 0-173.70666667-66.4096-173.70666667-148.19946667 0-81.65866667 76.5248-148.20053333 173.70666667-148.20053333 91.73546667 0 173.4784 66.54186667 173.4784 148.20053333C809.648 626.83413333 779.1072 667.63306667 738.09386667 698.36373333z" p-id="1482" fill="#707070"></path></svg>